# xmcd CD database file
#
# Track frame offsets:
#	150
#	16177
#	33741
#	48751
#	62364
#	77923
#
# Disc length: 1322 seconds
#
# Revision: 0
# Processed by: cddbd v1.5.2PL0 Copyright (c) Steve Scherf et al.
# Submitted via: CDex 1.70beta2
#
DISCID=3e052806
DTITLE=T字路's - マヅメドキ
DYEAR=2011
DGENRE=Blues
TTITLE0=蛙と豆鉄砲
TTITLE1=泪橋
TTITLE2=風来坊のララバイ
TTITLE3=あたしのブギウギ
TTITLE4=のら犬にさえなれない
TTITLE5=東風
EXTD=YEAR: 2011
EXTT0=
EXTT1=
EXTT2=
EXTT3=
EXTT4=
EXTT5=
PLAYORDER=
